<?xml version="1.0" encoding="utf-8"?>
<!-- Generator: Adobe Illustrator 22.0.1, SVG Export Plug-In . SVG Version: 6.00 Build 0)  -->
<svg version="1.1" id="Layer_1" xmlns="http://www.w3.org/2000/svg" xmlns:xlink="http://www.w3.org/1999/xlink" x="0px" y="0px"
	 viewBox="0 0 1440 2000" style="enable-background:new 0 0 1440 2000;" xml:space="preserve">
<metadata><?xpacket begin="﻿" id="W5M0MpCehiHzreSzNTczkc9d"?>
<x:xmpmeta xmlns:x="adobe:ns:meta/" x:xmptk="Adobe XMP Core 5.6-c143 79.161210, 2017/08/11-10:28:36        ">
   <rdf:RDF xmlns:rdf="http://www.w3.org/1999/02/22-rdf-syntax-ns#">
      <rdf:Description rdf:about=""/>
   </rdf:RDF>
</x:xmpmeta>
                                                                                                    
                                                                                                    
                                                                                                    
                                                                                                    
                                                                                                    
                                                                                                    
                                                                                                    
                                                                                                    
                                                                                                    
                                                                                                    
                                                                                                    
                                                                                                    
                                                                                                    
                                                                                                    
                                                                                                    
                                                                                                    
                                                                                                    
                                                                                                    
                                                                                                    
                                                                                                    
                           
<?xpacket end="w"?></metadata>
<style type="text/css">
	.st0{fill-rule:evenodd;clip-rule:evenodd;}
</style>
<path class="st0" d="M698,983.5v2.3h-2.5v11.8h-2.6v-11.8h-2.1v-2.3h2.1v-3.8h2.6v3.8H698z M710.5,983.5v7.7c0,2.9-1.8,4.2-3.8,4.2
	c-1.6,0-3-0.6-3-2.7v-9.2h-2.6v9.6c0,3.2,2.6,4.6,5.3,4.6c1.6,0,3.2-0.6,4.1-2h0.1v1.9h2.5v-14H710.5z M727.3,997.6l2.4,0v-19.1
	h-2.6v6.7c-1.2-1.1-2.9-2-4.8-2c-3.9,0-7,3-6.9,7.2c0.1,3.8,3,7.2,6.9,7.2c2,0,3.6-0.8,4.9-2.3V997.6z M722.4,985.7
	c-2.6,0-4.5,2.3-4.5,4.8c0,2.5,2.1,4.8,4.6,4.8c2.8,0,4.9-1.8,4.9-4.8C727.4,987.6,725.2,985.7,722.4,985.7z M746.4,983.3
	c-4,0-7.4,3.1-7.4,7.2c0,4.1,3.3,7.2,7.4,7.2c4,0,7.4-3.1,7.4-7.2C753.8,986.4,750.4,983.3,746.4,983.3z M746.4,985.7
	c-2.7,0-4.8,2.2-4.8,4.8s2.1,4.8,4.8,4.8c2.7,0,4.8-2.2,4.8-4.8S749.1,985.7,746.4,985.7z M735.9,997.5v-14h-2.6v14H735.9z
	 M735.9,981.5v-3.1h-2.6v3.1H735.9z M679.7,995.4c1.2,1.6,2.8,2.3,4.8,2.3c2.5,0,4.7-1.7,4.7-4.3c0-5.4-6.7-3.1-6.7-6.2
	c0-1.3,1-1.7,2.1-1.7c1.2,0,1.8,0.5,2.6,1.3l1.5-1.7c-1.4-1.3-2.5-1.9-4.4-1.9c-2.5,0-4.4,1.8-4.4,4.3c0,5.1,6.7,2.6,6.7,6.1
	c0,1.2-1.3,1.7-2.3,1.7c-1.3,0-2.1-0.6-2.8-1.5L679.7,995.4z M716.8,1004.7c-4,0-7.4,3.1-7.4,7.2c0,4.1,3.3,7.2,7.4,7.2
	c4,0,7.4-3.1,7.4-7.2C724.2,1007.9,720.8,1004.7,716.8,1004.7z M716.8,1007.1c-2.7,0-4.8,2.2-4.8,4.8c0,2.6,2.1,4.8,4.8,4.8
	c2.7,0,4.8-2.2,4.8-4.8C721.6,1009.3,719.5,1007.1,716.8,1007.1z M730,1019V1000h-2.6v19.1H730z M753.2,1015.7l-3.5,6.8l2.3,0.6
	l8.6-17.9l-2.3-0.4l-4,8.3l-4.3-8.3l-2.3,0.4L753.2,1015.7z M704,1019l2.4,0v-19.1h-2.6v6.7c-1.2-1.1-2.9-2-4.8-2
	c-3.9,0-7,3-6.9,7.2c0.1,3.8,3,7.2,6.9,7.2c2,0,3.6-0.8,4.9-2.3V1019z M699.2,1007.1c-2.6,0-4.5,2.3-4.5,4.8c0,2.5,2.1,4.8,4.6,4.8
	c2.8,0,4.9-1.8,4.9-4.8C704.2,1009,702,1007.1,699.2,1007.1z M733.3,1019h2.6v-1.2c1.2,0.9,2.7,1.4,4.2,1.4c4.2,0,7.4-3,7.4-7.3
	c0-4-3.1-7.1-6.9-7.1c-2,0-3.4,0.6-4.7,2.1v-6.9h-2.6v6.2V1019z M740.3,1007.1c2.6,0,4.6,2.2,4.6,4.8c0,2.6-1.9,4.8-4.6,4.8
	c-2.7,0-4.7-2.2-4.7-4.8C735.6,1009.3,737.7,1007.1,740.3,1007.1z"/>
</svg>
